<?xml version="1.0" encoding="UTF-8"?>
<!DOCTYPE svg PUBLIC "-//W3C//DTD SVG 1.1//EN" "http://www.w3.org/Graphics/SVG/1.1/DTD/svg11.dtd">
<!-- Creator: CorelDRAW X8 -->
<svg xmlns="http://www.w3.org/2000/svg" xml:space="preserve" width="121.158mm" height="37.084mm" version="1.1" style="shape-rendering:geometricPrecision; text-rendering:geometricPrecision; image-rendering:optimizeQuality; fill-rule:evenodd; clip-rule:evenodd"
viewBox="0 0 12116 3708"
 xmlns:xlink="http://www.w3.org/1999/xlink">
 <defs>
  <style type="text/css">
   <![CDATA[
    .fil0 {fill:#D9DADA}
   ]]>
  </style>
 </defs>
 <g id="Layer_x0020_1">
  <metadata id="CorelCorpID_0Corel-Layer"/>
  <path class="fil0" d="M1 1141l10675 0 -360 286 -10315 0 0 -286zm0 571l9955 0 -360 286 -9595 0 0 -286zm0 571l9236 0 -360 286 -8876 0 0 -286zm0 571l8516 0 -360 286 -8156 0 0 -286zm0 571l7796 0 -360 286 -7436 0 0 -286zm0 -2855l11395 0 -360 286 -11035 0 0 -286zm0 -571l12114 0 -360 286 -11754 0 0 -286z"/>
 </g>
</svg>
