<?xml version="1.0" encoding="UTF-8"?>
<!DOCTYPE svg PUBLIC "-//W3C//DTD SVG 1.1//EN" "http://www.w3.org/Graphics/SVG/1.1/DTD/svg11.dtd">
<!-- Creator: CorelDRAW X8 -->
<svg xmlns="http://www.w3.org/2000/svg" xml:space="preserve" width="252.984mm" height="44.45mm" version="1.1" style="shape-rendering:geometricPrecision; text-rendering:geometricPrecision; image-rendering:optimizeQuality; fill-rule:evenodd; clip-rule:evenodd"
viewBox="0 0 25298 4445"
 xmlns:xlink="http://www.w3.org/1999/xlink">
 <defs>
  <style type="text/css">
   <![CDATA[
    .str0 {stroke:#EBECEC;stroke-width:20}
    .fil0 {fill:none}
   ]]>
  </style>
 </defs>
 <g id="Layer_x0020_1">
  <metadata id="CorelCorpID_0Corel-Layer"/>
  <path class="fil0 str0" d="M1 4444l0 -4 0 -74 0 -74 0 -74 0 -74 0 -73 0 -74 0 -74 0 -74 0 -74 0 -74 0 -74 0 -74 0 -74 0 -74 0 -74 0 -74 0 -74 0 -74 0 -74 0 -74 0 -74 0 -74 0 -74 0 -74 0 -74 0 -74 0 -74 0 -74 0 -74 0 -74 0 -74 0 -74 0 -74 0 -74 0 -74 0 -74 0 -73 0 -74 0 -74 0 -74 0 -74 0 -74 0 -74 0 -74 0 -74 0 -74 0 -74 0 -74 0 -74 0 -74 0 -74 0 -74 0 -74 0 -74 0 -74 0 -74 0 -74 0 -74 0 -74 0 -74 0 -3m25288 4445l0 -4 0 -74 0 -74 0 -74 0 -74 0 -73 0 -74 0 -74 0 -74 0 -74 0 -74 0 -74 0 -74 0 -74 0 -74 0 -74 0 -74 0 -74 0 -74 0 -74 0 -74 0 -74 0 -74 0 -74 0 -74 0 -74 0 -74 0 -74 0 -74 0 -74 0 -74 0 -74 0 -74 0 -74 0 -74 0 -74 0 -74 0 -73 0 -74 0 -74 0 -74 0 -74 0 -74 0 -74 0 -74 0 -74 0 -74 0 -74 0 -74 0 -74 0 -74 0 -74 0 -74 0 -74 0 -74 0 -74 0 -74 0 -74 0 -74 0 -74 0 -74 0 -3m-25291 4441l3 0 25288 0 3 0m-25294 -74l3 0 25288 0 3 0m-25294 -74l3 0 25288 0 3 0m-25294 -74l3 0 25288 0 3 0m-25294 -74l3 0 25288 0 3 0m-25294 -73l3 0 25288 0 3 0m-25294 -74l3 0 25288 0 3 0m-25294 -74l3 0 25288 0 3 0m-25294 -74l3 0 25288 0 3 0m-25294 -74l3 0 25288 0 3 0m-25294 -74l3 0 25288 0 3 0m-25294 -74l3 0 25288 0 3 0m-25294 -74l3 0 25288 0 3 0m-25294 -74l3 0 25288 0 3 0m-25294 -74l3 0 25288 0 3 0m-25294 -74l3 0 25288 0 3 0m-25294 -74l3 0 25288 0 3 0m-25294 -74l3 0 25288 0 3 0m-25294 -74l3 0 25288 0 3 0m-25294 -74l3 0 25288 0 3 0m-25294 -74l3 0 25288 0 3 0m-25294 -74l3 0 25288 0 3 0m-25294 -74l3 0 25288 0 3 0m-25294 -74l3 0 25288 0 3 0m-25294 -74l3 0 25288 0 3 0m-25294 -74l3 0 25288 0 3 0m-25294 -74l3 0 25288 0 3 0m-25294 -74l3 0 25288 0 3 0m-25294 -74l3 0 25288 0 3 0m-25294 -74l3 0 25288 0 3 0m-25294 -74l3 0 25288 0 3 0m-25294 -74l3 0 25288 0 3 0m-25294 -74l3 0 25288 0 3 0m-25294 -74l3 0 25288 0 3 0m-25294 -74l3 0 25288 0 3 0m-25294 -74l3 0 25288 0 3 0m-25294 -74l3 0 25288 0 3 0m-25294 -73l3 0 25288 0 3 0m-25294 -74l3 0 25288 0 3 0m-25294 -74l3 0 25288 0 3 0m-25294 -74l3 0 25288 0 3 0m-25294 -74l3 0 25288 0 3 0m-25294 -74l3 0 25288 0 3 0m-25294 -74l3 0 25288 0 3 0m-25294 -74l3 0 25288 0 3 0m-25294 -74l3 0 25288 0 3 0m-25294 -74l3 0 25288 0 3 0m-25294 -74l3 0 25288 0 3 0m-25294 -74l3 0 25288 0 3 0m-25294 -74l3 0 25288 0 3 0m-25294 -74l3 0 25288 0 3 0m-25294 -74l3 0 25288 0 3 0m-25294 -74l3 0 25288 0 3 0m-25294 -74l3 0 25288 0 3 0m-25294 -74l3 0 25288 0 3 0m-25294 -74l3 0 25288 0 3 0m-25294 -74l3 0 25288 0 3 0m-25294 -74l3 0 25288 0 3 0m-25294 -74l3 0 25288 0 3 0m-25294 -74l3 0 25288 0 3 0m-25294 -74l3 0 25288 0 3 0"/>
 </g>
</svg>
