<?xml version="1.0" encoding="UTF-8"?>
<!DOCTYPE svg PUBLIC "-//W3C//DTD SVG 1.1//EN" "http://www.w3.org/Graphics/SVG/1.1/DTD/svg11.dtd">
<!-- Creator: CorelDRAW X8 -->
<svg xmlns="http://www.w3.org/2000/svg" xml:space="preserve" width="3.243mm" height="3.242mm" version="1.1" style="shape-rendering:geometricPrecision; text-rendering:geometricPrecision; image-rendering:optimizeQuality; fill-rule:evenodd; clip-rule:evenodd"
viewBox="0 0 324 324"
 xmlns:xlink="http://www.w3.org/1999/xlink">
 <defs>
  <style type="text/css">
   <![CDATA[
    .fil0 {fill:#7688A1}
   ]]>
  </style>
 </defs>
 <g id="Layer_x0020_1">
  <metadata id="CorelCorpID_0Corel-Layer"/>
  <path class="fil0" d="M31 0c-17,2 -29,15 -30,31 0,3 0,15 0,20l0 233c0,3 0,7 0,10 1,12 8,20 15,25 9,5 16,5 25,5 82,0 163,0 244,0 3,0 7,0 10,0 17,-2 29,-16 30,-31 0,-4 0,-15 0,-20l0 -233c0,-3 0,-7 0,-10 -2,-17 -15,-29 -31,-30 -3,0 -15,0 -20,0 -78,0 -155,0 -233,0 -3,0 -7,0 -10,0zm195 163l-66 142 -62 -148c-73,-161 206,-176 128,6zm-31 -16c-12,15 -46,22 -65,-3 -37,-82 104,-89 65,3z"/>
 </g>
</svg>
