<?xml version="1.0" encoding="UTF-8"?>
<!DOCTYPE svg PUBLIC "-//W3C//DTD SVG 1.1//EN" "http://www.w3.org/Graphics/SVG/1.1/DTD/svg11.dtd">
<!-- Creator: CorelDRAW X8 -->
<svg xmlns="http://www.w3.org/2000/svg" xml:space="preserve" width="3.234mm" height="3.234mm" version="1.1" style="shape-rendering:geometricPrecision; text-rendering:geometricPrecision; image-rendering:optimizeQuality; fill-rule:evenodd; clip-rule:evenodd"
viewBox="0 0 323 323"
 xmlns:xlink="http://www.w3.org/1999/xlink">
 <defs>
  <style type="text/css">
   <![CDATA[
    .fil0 {fill:#FEFEFE}
   ]]>
  </style>
 </defs>
 <g id="Layer_x0020_1">
  <metadata id="CorelCorpID_0Corel-Layer"/>
  <path class="fil0" d="M30 0c-17,2 -28,15 -30,31 0,3 0,15 0,20l0 232c0,3 0,7 0,10 2,12 9,21 16,25 8,6 15,5 25,5 81,0 161,0 242,0 4,0 7,1 10,0 17,-1 29,-15 30,-30 1,-4 0,-16 0,-20l0 -233c0,-3 1,-7 0,-10 -1,-16 -15,-29 -30,-30 -4,0 -16,0 -20,0 -78,0 -155,0 -233,0 -3,0 -6,0 -10,0zm195 163l-66 141 -62 -147c-72,-161 206,-176 128,6zm-32 -16c-11,15 -45,22 -64,-3 -36,-82 104,-89 64,3z"/>
 </g>
</svg>
