<?xml version="1.0" encoding="UTF-8"?>
<!DOCTYPE svg PUBLIC "-//W3C//DTD SVG 1.1//EN" "http://www.w3.org/Graphics/SVG/1.1/DTD/svg11.dtd">
<!-- Creator: CorelDRAW X8 -->
<svg xmlns="http://www.w3.org/2000/svg" xml:space="preserve" width="49.047mm" height="23.73mm" version="1.1" style="shape-rendering:geometricPrecision; text-rendering:geometricPrecision; image-rendering:optimizeQuality; fill-rule:evenodd; clip-rule:evenodd"
viewBox="0 0 4905 2373"
 xmlns:xlink="http://www.w3.org/1999/xlink">
 <defs>
  <style type="text/css">
   <![CDATA[
    .str0 {stroke:#EF7F1A;stroke-width:7.62}
    .fil3 {fill:#EF7F1A}
    .fil2 {fill:#7688A1}
    .fil0 {fill:#EF7F1A;fill-rule:nonzero}
    .fil1 {fill:#7688A1;fill-rule:nonzero}
   ]]>
  </style>
 </defs>
 <g id="Layer_x0020_1">
  <metadata id="CorelCorpID_0Corel-Layer"/>
  <path class="fil0 str0" d="M615 1911l0 -570 63 0 0 504 332 0 0 66 -395 0zm669 -51c53,0 96,-16 129,-48 33,-31 50,-72 50,-121 0,-49 -17,-89 -50,-121 -34,-32 -76,-48 -129,-48 -52,0 -95,15 -128,47 -33,32 -49,73 -49,122 0,49 16,90 49,121 33,32 76,48 128,48zm0 65c-70,0 -128,-22 -173,-67 -45,-44 -68,-100 -68,-167 0,-67 23,-123 68,-167 45,-44 103,-66 173,-66 71,0 129,22 175,66 45,43 67,99 67,167 0,67 -23,123 -68,167 -45,45 -103,67 -174,67zm609 -185l0 -64 163 0 0 133c-23,38 -53,67 -89,86 -37,20 -79,30 -128,30 -72,0 -132,-22 -178,-66 -46,-44 -69,-100 -69,-167 0,-68 23,-123 70,-168 46,-44 105,-66 177,-66 46,0 86,9 121,26 36,18 65,44 88,78l-47 38c-17,-24 -39,-44 -68,-58 -28,-14 -59,-20 -94,-20 -53,0 -98,16 -132,48 -34,32 -52,72 -52,121 0,49 18,89 52,121 34,32 78,48 132,48 34,0 66,-7 94,-20 29,-14 49,-32 60,-53l0 -47 -100 0zm276 171l0 -442 63 0 0 442 -63 0zm165 -56l29 -58c28,20 57,36 89,47 32,12 63,17 92,17 35,0 63,-8 85,-24 21,-16 32,-36 32,-61 0,-25 -10,-44 -29,-56 -20,-13 -51,-19 -94,-21 -71,-1 -121,-10 -147,-28 -27,-17 -40,-46 -40,-87 0,-38 14,-68 44,-91 29,-23 69,-35 118,-35 34,0 67,5 99,16 31,11 62,27 92,48l-31 57c-25,-19 -51,-33 -80,-43 -28,-10 -55,-15 -81,-15 -30,0 -54,5 -72,17 -18,12 -27,27 -27,46 0,19 9,33 27,42 18,8 50,12 95,12 63,0 110,12 142,36 32,23 48,59 48,106 0,41 -16,76 -48,103 -33,28 -75,42 -126,42 -39,0 -76,-6 -114,-19 -38,-12 -72,-29 -103,-51zm595 56l0 -380 -167 0 0 -61 394 0 0 61 -166 0 0 380 -61 0zm289 0l0 -442 63 0 0 442 -63 0zm615 -108c-22,40 -52,70 -88,91 -36,20 -78,31 -124,31 -70,0 -126,-22 -171,-66 -45,-44 -67,-100 -67,-167 0,-68 22,-123 67,-168 45,-44 101,-66 171,-66 43,0 82,9 117,27 35,18 63,44 85,77l-49 38c-16,-25 -38,-45 -64,-58 -27,-14 -57,-20 -89,-20 -51,0 -92,16 -126,48 -33,32 -49,72 -49,121 0,48 16,89 50,121 33,32 75,48 125,48 35,0 66,-8 92,-23 27,-15 51,-39 71,-72l49 38zm70 52l30 -58c27,20 56,36 88,47 32,12 63,17 92,17 35,0 64,-8 85,-24 22,-16 32,-36 32,-61 0,-25 -9,-44 -29,-56 -20,-13 -51,-19 -93,-21 -72,-1 -121,-10 -148,-28 -27,-17 -40,-46 -40,-87 0,-38 14,-68 44,-91 29,-23 69,-35 118,-35 34,0 67,5 99,16 32,11 62,27 92,48l-31 57c-25,-19 -51,-33 -79,-43 -29,-10 -56,-15 -82,-15 -30,0 -54,5 -72,17 -18,12 -27,27 -27,46 0,19 9,33 27,42 19,8 51,12 96,12 62,0 110,12 142,36 32,23 48,59 48,106 0,41 -17,76 -49,103 -32,28 -74,42 -126,42 -38,0 -76,-6 -114,-19 -37,-12 -72,-29 -103,-51z"/>
  <path class="fil1" d="M1853 2329l17 -27c17,14 34,24 52,32 19,7 37,11 54,11 22,0 40,-5 54,-15 14,-10 21,-23 21,-39 0,-12 -5,-23 -15,-31 -10,-8 -24,-12 -41,-14 -4,0 -10,-1 -18,-1 -39,-3 -66,-8 -80,-15 -11,-6 -20,-13 -25,-22 -6,-9 -9,-19 -9,-31 0,-20 9,-37 26,-50 17,-14 39,-20 66,-20 20,0 40,3 59,10 19,7 38,18 55,31l-17 27c-15,-13 -30,-22 -46,-29 -16,-6 -33,-9 -50,-9 -18,0 -33,3 -45,11 -11,7 -17,17 -17,28 0,4 1,9 3,12 2,4 5,7 8,11 10,8 31,13 64,15 15,1 26,2 34,3 25,3 44,11 58,25 14,13 21,30 21,50 0,24 -10,43 -29,59 -19,15 -45,23 -76,23 -24,0 -46,-4 -66,-11 -21,-8 -40,-19 -58,-34zm282 38l0 -197 172 0 0 29 -144 0 0 49 95 0 0 29 -95 0 0 62 152 0 0 28 -180 0zm250 -115l98 0c10,0 18,-2 23,-6 5,-5 8,-12 8,-20 0,-9 -3,-16 -8,-20 -5,-5 -13,-7 -23,-7l-98 0 0 53zm0 29l0 86 -28 0 0 -196 126 0c19,0 34,5 44,14 11,10 16,23 16,41 0,14 -4,26 -12,36 -9,10 -20,17 -33,19l51 86 -31 0 -52 -86 -81 0zm283 86l-15 0 -92 -197 30 0 70 148 68 -148 31 0 -92 197zm129 0l0 -197 29 0 0 197 -29 0zm77 -25l13 -26c13,9 27,16 42,21 15,6 29,8 43,8 16,0 30,-3 40,-11 10,-7 15,-16 15,-27 0,-11 -5,-20 -14,-25 -9,-6 -24,-9 -44,-9 -33,-1 -56,-5 -69,-13 -12,-8 -19,-21 -19,-39 0,-17 7,-30 21,-41 14,-10 32,-15 55,-15 16,0 32,2 47,7 14,5 29,12 43,21l-15 26c-11,-8 -24,-15 -37,-19 -13,-5 -26,-7 -38,-7 -14,0 -25,2 -34,8 -8,5 -12,12 -12,20 0,9 4,15 12,19 9,4 24,5 45,5 29,0 51,6 66,16 15,11 23,27 23,48 0,18 -8,34 -23,46 -15,12 -35,18 -59,18 -18,0 -36,-2 -53,-8 -18,-5 -34,-13 -48,-23z"/>
  <path class="fil2" d="M1804 813l-1636 0 42 33 1636 0 -42 -33zm83 66l-1636 0 42 33 1636 0 -42 -33zm83 65l-1636 0 42 33 1636 0 -42 -33zm83 66l-1636 0 42 33 1636 0 -42 -33zm83 66l-1636 0 42 33 1635 0 -41 -33zm-415 -329l-1636 0 42 33 1636 0 -42 -33zm-83 -66l-1636 0 42 33 1636 0 -42 -33z"/>
  <path class="fil2" d="M3105 813l1636 0 -41 33 -1636 0 41 -33zm-83 66l1636 0 -41 33 -1636 0 41 -33zm-83 65l1636 0 -41 33 -1636 0 41 -33zm-83 66l1636 0 -41 33 -1636 0 41 -33zm-83 66l1636 0 -41 33 -1636 0 41 -33zm415 -329l1636 0 -41 33 -1636 0 41 -33zm83 -66l1636 0 -41 33 -1636 0 41 -33z"/>
  <polygon class="fil3" points="2179,312 2179,1070 1858,811 1858,312 1611,312 1611,1 2423,1 2423,312 "/>
  <polygon class="fil3" points="2731,312 2731,1070 3052,811 3052,312 3298,312 3298,1 2486,1 2486,312 "/>
  <polygon class="fil3" points="1857,1136 2177,1136 2177,1323 1857,1323 "/>
  <polygon class="fil3" points="2732,1136 3052,1136 3052,1323 2732,1323 "/>
 </g>
</svg>
