<?xml version="1.0" encoding="UTF-8"?>
<!DOCTYPE svg PUBLIC "-//W3C//DTD SVG 1.1//EN" "http://www.w3.org/Graphics/SVG/1.1/DTD/svg11.dtd">
<!-- Creator: CorelDRAW X8 -->
<svg xmlns="http://www.w3.org/2000/svg" xml:space="preserve" width="3.243mm" height="3.242mm" version="1.1" style="shape-rendering:geometricPrecision; text-rendering:geometricPrecision; image-rendering:optimizeQuality; fill-rule:evenodd; clip-rule:evenodd"
viewBox="0 0 324 324"
 xmlns:xlink="http://www.w3.org/1999/xlink">
 <defs>
  <style type="text/css">
   <![CDATA[
    .fil0 {fill:#7688A1}
   ]]>
  </style>
 </defs>
 <g id="Layer_x0020_1">
  <metadata id="CorelCorpID_0Corel-Layer"/>
  <path class="fil0" d="M31 0c-17,2 -29,15 -30,31 -1,3 -1,15 -1,20l0 233c0,3 0,7 1,10 1,12 8,20 15,25 9,5 16,5 25,5 81,0 162,0 243,0 4,0 7,0 10,0 17,-2 29,-16 30,-31 1,-4 1,-15 1,-20l0 -233c0,-3 0,-7 -1,-10 -1,-17 -15,-29 -30,-30 -4,0 -16,0 -20,0 -78,0 -156,0 -233,0 -4,0 -7,0 -10,0zm19 76l225 0 -112 81 -113 -81zm225 12l0 151 -225 0 0 -151 113 81 112 -81z"/>
 </g>
</svg>
