<?xml version="1.0" encoding="UTF-8"?>
<!DOCTYPE svg PUBLIC "-//W3C//DTD SVG 1.1//EN" "http://www.w3.org/Graphics/SVG/1.1/DTD/svg11.dtd">
<!-- Creator: CorelDRAW X8 -->
<svg xmlns="http://www.w3.org/2000/svg" xml:space="preserve" width="3.243mm" height="3.242mm" version="1.1" style="shape-rendering:geometricPrecision; text-rendering:geometricPrecision; image-rendering:optimizeQuality; fill-rule:evenodd; clip-rule:evenodd"
viewBox="0 0 324 324"
 xmlns:xlink="http://www.w3.org/1999/xlink">
 <defs>
  <style type="text/css">
   <![CDATA[
    .fil0 {fill:#7688A1}
   ]]>
  </style>
 </defs>
 <g id="Layer_x0020_1">
  <metadata id="CorelCorpID_0Corel-Layer"/>
  <path class="fil0" d="M31 1c-17,2 -29,15 -31,30 0,4 0,16 0,21l0 233c0,3 0,6 0,10 2,12 9,20 16,25 9,5 15,5 25,5 81,0 162,0 243,0 3,0 7,0 10,0 17,-2 29,-16 30,-31 1,-4 0,-15 0,-20l0 -233c0,-3 1,-7 0,-10 -1,-17 -15,-29 -30,-30 -4,0 -16,0 -21,0 -77,0 -155,0 -232,0 -4,0 -7,0 -10,0zm171 104l-19 0 0 -74c2,0 21,-1 22,0 1,0 3,1 4,2 4,3 3,8 3,13l0 44c0,3 0,7 -1,10 -2,3 -5,5 -9,5zm-19 182l0 -72 16 0c3,0 6,0 8,1 5,2 5,7 5,11l0 41c0,3 0,12 -1,15 -1,2 -3,3 -4,4 -2,1 -5,0 -8,0l-16 0zm-13 0c-3,0 -7,-1 -9,-2 -7,-4 -14,-9 -19,-16 -7,-7 -13,-18 -17,-29 -9,-24 -12,-53 -12,-81 0,-32 4,-70 20,-96 4,-7 8,-13 13,-19 1,0 1,-1 2,-1 2,-2 4,-4 6,-5 3,-3 11,-7 16,-7l0 73c-10,1 -12,13 -14,22 -2,22 -2,46 1,67 1,6 3,16 7,20 2,2 3,2 6,2l0 72z"/>
 </g>
</svg>
