<?xml version="1.0" encoding="UTF-8"?>
<!DOCTYPE svg PUBLIC "-//W3C//DTD SVG 1.1//EN" "http://www.w3.org/Graphics/SVG/1.1/DTD/svg11.dtd">
<!-- Creator: CorelDRAW X8 -->
<svg xmlns="http://www.w3.org/2000/svg" xml:space="preserve" width="3.234mm" height="3.234mm" version="1.1" style="shape-rendering:geometricPrecision; text-rendering:geometricPrecision; image-rendering:optimizeQuality; fill-rule:evenodd; clip-rule:evenodd"
viewBox="0 0 323 323"
 xmlns:xlink="http://www.w3.org/1999/xlink">
 <defs>
  <style type="text/css">
   <![CDATA[
    .fil0 {fill:#FEFEFE}
   ]]>
  </style>
 </defs>
 <g id="Layer_x0020_1">
  <metadata id="CorelCorpID_0Corel-Layer"/>
  <path class="fil0" d="M30 0c-17,2 -29,15 -30,31 0,3 0,15 0,20l0 232c0,3 0,7 0,10 1,12 9,21 16,25 8,6 15,5 25,5 81,0 161,0 242,0 3,0 7,1 10,0 17,-2 29,-15 30,-30 1,-4 0,-16 0,-20l0 -233c0,-3 1,-7 0,-10 -1,-17 -15,-29 -30,-30 -4,0 -16,0 -20,0 -78,0 -155,0 -233,0 -3,0 -7,0 -10,0zm171 104l-19 0 0 -74c2,0 21,0 22,0 1,0 3,1 4,2 4,3 3,8 3,13l0 44c0,3 0,7 -1,10 -2,4 -5,5 -9,5zm-18 182l0 -72 16 0c2,0 5,0 7,1 5,2 5,7 5,11l0 40c0,4 0,13 -1,15 -1,2 -2,4 -4,4 -2,1 -5,1 -7,1l-16 0zm-14 0c-2,0 -6,-2 -9,-3 -7,-3 -13,-9 -19,-15 -6,-8 -12,-18 -16,-30 -9,-24 -13,-52 -12,-80 0,-32 4,-69 19,-96 4,-7 8,-13 14,-18 0,-1 1,-1 1,-2 2,-2 4,-3 7,-5 3,-2 10,-7 15,-7l0 74c-10,0 -12,12 -13,21 -3,22 -2,45 1,67 0,5 2,16 6,20 2,1 3,2 6,2l0 72z"/>
 </g>
</svg>
